<svg id="svg" version="1.1" xmlns="http://www.w3.org/2000/svg" xmlns:xlink="http://www.w3.org/1999/xlink" width="400" height="400" viewBox="0, 0, 400,400"><g id="svgg"><path id="path0" d="M201.274 99.308 C 201.028 99.799,200.284 101.100,199.620 102.200 C 198.957 103.300,198.236 104.560,198.018 105.000 C 197.801 105.440,197.090 106.700,196.438 107.800 C 195.787 108.900,194.846 110.610,194.348 111.600 C 193.849 112.590,193.207 113.638,192.921 113.929 C 192.634 114.219,192.400 114.714,192.400 115.029 C 192.400 115.343,192.254 115.600,192.075 115.600 C 191.896 115.600,191.352 116.455,190.867 117.500 C 190.381 118.545,189.629 119.940,189.196 120.600 C 188.763 121.260,188.284 122.070,188.130 122.400 C 187.977 122.730,187.199 124.080,186.400 125.400 C 185.601 126.720,184.818 128.070,184.658 128.400 C 184.499 128.730,184.150 129.360,183.883 129.800 C 183.615 130.240,182.599 132.040,181.625 133.800 C 180.650 135.560,179.706 137.060,179.526 137.133 C 179.347 137.207,179.200 137.509,179.200 137.805 C 179.200 138.101,178.975 138.586,178.700 138.883 C 178.425 139.180,177.673 140.473,177.028 141.755 C 176.384 143.037,175.664 144.294,175.428 144.549 C 175.193 144.804,174.644 145.729,174.208 146.606 C 173.772 147.483,172.771 149.280,171.982 150.600 C 171.193 151.920,170.424 153.270,170.273 153.600 C 170.122 153.930,169.362 155.280,168.584 156.600 C 167.806 157.920,167.065 159.315,166.938 159.700 C 166.811 160.085,166.548 160.400,166.353 160.400 C 166.159 160.400,166.000 160.657,166.000 160.971 C 166.000 161.286,165.775 161.781,165.500 162.071 C 165.225 162.362,164.550 163.470,164.000 164.534 C 163.450 165.598,162.820 166.768,162.600 167.134 C 162.380 167.500,161.570 168.880,160.800 170.200 C 160.030 171.520,159.183 172.960,158.917 173.400 C 158.652 173.840,158.252 174.560,158.028 175.000 C 157.805 175.440,157.090 176.700,156.438 177.800 C 155.787 178.900,154.846 180.610,154.348 181.600 C 153.849 182.590,153.207 183.638,152.921 183.929 C 152.634 184.219,152.400 184.714,152.400 185.029 C 152.400 185.343,152.254 185.600,152.075 185.600 C 151.896 185.600,151.352 186.455,150.867 187.500 C 150.381 188.545,149.629 189.940,149.196 190.600 C 148.763 191.260,148.284 192.070,148.130 192.400 C 147.977 192.730,147.199 194.080,146.400 195.400 C 145.601 196.720,144.818 198.070,144.658 198.400 C 144.499 198.730,144.150 199.360,143.883 199.800 C 143.615 200.240,142.599 202.040,141.625 203.800 C 140.650 205.560,139.706 207.060,139.526 207.133 C 139.347 207.207,139.200 207.509,139.200 207.805 C 139.200 208.101,138.975 208.586,138.700 208.883 C 138.425 209.180,137.673 210.473,137.028 211.755 C 136.384 213.037,135.664 214.294,135.428 214.549 C 135.193 214.804,134.644 215.729,134.208 216.606 C 133.772 217.483,132.771 219.280,131.982 220.600 C 131.193 221.920,130.424 223.270,130.273 223.600 C 130.122 223.930,129.362 225.280,128.584 226.600 C 127.806 227.920,127.065 229.315,126.938 229.700 C 126.811 230.085,126.548 230.400,126.353 230.400 C 126.159 230.400,126.000 230.657,126.000 230.971 C 126.000 231.286,125.775 231.781,125.500 232.071 C 125.225 232.362,124.550 233.470,124.000 234.534 C 123.450 235.598,122.820 236.768,122.600 237.134 C 122.380 237.500,121.570 238.880,120.800 240.200 C 120.030 241.520,119.183 242.960,118.917 243.400 C 118.652 243.840,118.252 244.560,118.028 245.000 C 117.805 245.440,117.090 246.700,116.438 247.800 C 115.787 248.900,114.846 250.610,114.348 251.600 C 113.849 252.590,113.207 253.638,112.921 253.929 C 112.634 254.219,112.400 254.714,112.400 255.029 C 112.400 255.343,112.254 255.600,112.075 255.600 C 111.896 255.600,111.352 256.455,110.867 257.500 C 110.381 258.545,109.629 259.940,109.196 260.600 C 108.763 261.260,108.284 262.070,108.130 262.400 C 107.977 262.730,107.165 264.128,106.326 265.507 C 105.487 266.886,104.800 268.169,104.800 268.358 C 104.800 268.547,104.530 268.926,104.200 269.200 C 102.199 270.861,98.482 270.800,202.229 270.800 C 284.184 270.800,300.768 270.710,300.329 270.269 C 300.038 269.977,299.260 268.672,298.600 267.369 C 297.940 266.066,297.175 264.856,296.900 264.680 C 296.625 264.504,296.400 264.071,296.400 263.718 C 296.400 263.365,295.991 262.519,295.492 261.838 C 294.993 261.157,294.173 259.790,293.670 258.800 C 293.168 257.810,292.409 256.460,291.984 255.800 C 291.559 255.140,291.023 254.240,290.792 253.800 C 290.561 253.360,289.844 252.100,289.198 251.000 C 288.553 249.900,287.896 248.730,287.738 248.400 C 287.581 248.070,286.765 246.672,285.926 245.293 C 285.087 243.914,284.400 242.622,284.400 242.422 C 284.400 242.221,284.175 241.811,283.900 241.510 C 283.411 240.976,283.070 240.392,280.736 236.104 C 280.109 234.951,278.877 232.832,277.998 231.397 C 277.119 229.961,276.400 228.702,276.400 228.600 C 276.400 228.445,274.124 224.521,272.804 222.400 C 272.598 222.070,272.018 220.990,271.515 220.000 C 271.012 219.010,270.375 217.962,270.100 217.671 C 269.825 217.381,269.600 216.948,269.600 216.709 C 269.600 216.471,269.191 215.719,268.692 215.038 C 268.193 214.357,267.338 212.930,266.792 211.866 C 266.246 210.802,265.615 209.632,265.390 209.266 C 265.164 208.900,264.203 207.206,263.254 205.502 C 262.306 203.798,261.366 202.302,261.165 202.178 C 260.964 202.054,260.800 201.603,260.800 201.176 C 260.800 200.749,260.659 200.400,260.487 200.400 C 260.315 200.400,259.550 199.185,258.787 197.700 C 258.024 196.215,257.175 194.856,256.900 194.680 C 256.625 194.504,256.400 194.071,256.400 193.718 C 256.400 193.365,255.991 192.519,255.492 191.838 C 254.993 191.157,254.173 189.790,253.670 188.800 C 253.168 187.810,252.409 186.460,251.984 185.800 C 251.559 185.140,251.023 184.240,250.792 183.800 C 250.561 183.360,249.844 182.100,249.198 181.000 C 248.553 179.900,247.896 178.730,247.738 178.400 C 247.581 178.070,246.765 176.672,245.926 175.293 C 245.087 173.914,244.400 172.622,244.400 172.422 C 244.400 172.221,244.175 171.811,243.900 171.510 C 243.411 170.976,243.070 170.392,240.736 166.104 C 240.109 164.951,238.877 162.832,237.998 161.397 C 237.119 159.961,236.400 158.702,236.400 158.600 C 236.400 158.445,234.124 154.521,232.804 152.400 C 232.598 152.070,232.018 150.990,231.515 150.000 C 231.012 149.010,230.375 147.962,230.100 147.671 C 229.825 147.381,229.600 146.948,229.600 146.709 C 229.600 146.471,229.191 145.719,228.692 145.038 C 228.193 144.357,227.338 142.930,226.792 141.866 C 226.246 140.802,225.615 139.632,225.390 139.266 C 225.164 138.900,224.203 137.206,223.254 135.502 C 222.306 133.798,221.366 132.302,221.165 132.178 C 220.964 132.054,220.800 131.603,220.800 131.176 C 220.800 130.749,220.659 130.400,220.487 130.400 C 220.315 130.400,219.550 129.185,218.787 127.700 C 218.024 126.215,217.175 124.856,216.900 124.680 C 216.625 124.504,216.400 124.071,216.400 123.718 C 216.400 123.365,215.991 122.519,215.492 121.838 C 214.993 121.157,214.173 119.790,213.670 118.800 C 213.168 117.810,212.409 116.460,211.984 115.800 C 211.559 115.140,211.023 114.240,210.792 113.800 C 210.561 113.360,209.844 112.100,209.198 111.000 C 208.553 109.900,207.896 108.730,207.738 108.400 C 207.581 108.070,206.788 106.710,205.977 105.377 C 205.166 104.044,204.377 102.559,204.224 102.077 C 204.071 101.595,203.778 101.200,203.573 101.200 C 203.368 101.200,203.200 100.958,203.200 100.661 C 203.200 100.365,202.867 99.739,202.460 99.270 L 201.721 98.417 201.274 99.308 " stroke="none" fill="#fbfbfb" fill-rule="evenodd"></path><path id="path1" d="M206.760 105.800 C 207.434 107.105,207.988 107.828,207.985 107.400 C 207.983 107.180,207.614 106.550,207.164 106.000 C 206.621 105.336,206.485 105.269,206.760 105.800 M185.223 125.850 C 184.753 126.648,184.433 127.366,184.513 127.446 C 184.592 127.526,185.061 126.873,185.554 125.996 C 186.675 124.002,186.388 123.877,185.223 125.850 M240.037 164.000 C 241.196 165.796,241.200 165.801,241.198 165.367 C 241.197 165.165,240.732 164.460,240.165 163.800 L 239.134 162.600 240.037 164.000 M246.760 175.800 C 247.434 177.105,247.988 177.828,247.985 177.400 C 247.983 177.180,247.614 176.550,247.164 176.000 C 246.621 175.336,246.485 175.269,246.760 175.800 M145.223 195.850 C 144.753 196.648,144.433 197.366,144.513 197.446 C 144.592 197.526,145.061 196.873,145.554 195.996 C 146.675 194.002,146.388 193.877,145.223 195.850 M280.037 234.000 C 281.196 235.796,281.200 235.801,281.198 235.367 C 281.197 235.165,280.732 234.460,280.165 233.800 L 279.134 232.600 280.037 234.000 M286.760 245.800 C 287.434 247.105,287.988 247.828,287.985 247.400 C 287.983 247.180,287.614 246.550,287.164 246.000 C 286.621 245.336,286.485 245.269,286.760 245.800 M105.223 265.850 C 104.753 266.648,104.433 267.366,104.513 267.446 C 104.592 267.526,105.061 266.873,105.554 265.996 C 106.675 264.002,106.388 263.877,105.223 265.850 M152.700 271.500 C 179.815 271.557,224.185 271.557,251.300 271.500 C 278.415 271.443,256.230 271.397,202.000 271.397 C 147.770 271.397,125.585 271.443,152.700 271.500 " stroke="none" fill="#646464" fill-rule="evenodd"></path><path id="path2" d="M200.486 99.700 C 200.006 100.635,199.025 102.408,198.306 103.640 C 197.588 104.871,196.112 107.481,195.027 109.440 C 193.942 111.398,192.665 113.630,192.191 114.400 C 191.716 115.170,190.876 116.610,190.324 117.600 C 189.773 118.590,188.214 121.320,186.861 123.667 C 185.507 126.014,184.400 128.107,184.400 128.318 C 184.400 128.529,184.146 128.913,183.834 129.171 C 183.523 129.430,182.897 130.397,182.443 131.320 C 181.989 132.244,181.084 133.900,180.432 135.000 C 178.485 138.286,178.043 139.200,178.404 139.200 C 178.592 139.200,178.872 138.795,179.027 138.300 C 179.181 137.805,179.431 137.310,179.583 137.200 C 179.734 137.090,180.654 135.560,181.627 133.800 C 182.600 132.040,183.615 130.240,183.883 129.800 C 184.150 129.360,184.499 128.730,184.658 128.400 C 184.818 128.070,185.601 126.720,186.400 125.400 C 187.199 124.080,187.977 122.730,188.130 122.400 C 188.284 122.070,188.763 121.260,189.196 120.600 C 189.629 119.940,190.381 118.545,190.867 117.500 C 191.352 116.455,191.896 115.600,192.075 115.600 C 192.254 115.600,192.400 115.343,192.400 115.029 C 192.400 114.714,192.634 114.219,192.921 113.929 C 193.207 113.638,193.849 112.590,194.348 111.600 C 194.846 110.610,195.787 108.900,196.438 107.800 C 197.090 106.700,197.801 105.440,198.018 105.000 C 198.236 104.560,198.957 103.300,199.620 102.200 C 200.284 101.100,201.028 99.799,201.274 99.308 L 201.721 98.417 202.460 99.270 C 202.867 99.739,203.200 100.365,203.200 100.661 C 203.200 100.958,203.368 101.200,203.573 101.200 C 203.778 101.200,204.071 101.595,204.224 102.077 C 204.377 102.559,205.166 104.044,205.977 105.377 C 206.788 106.710,207.581 108.070,207.738 108.400 C 207.896 108.730,208.553 109.900,209.198 111.000 C 209.844 112.100,210.561 113.360,210.792 113.800 C 211.023 114.240,211.559 115.140,211.984 115.800 C 212.409 116.460,213.168 117.810,213.670 118.800 C 214.173 119.790,214.975 121.140,215.451 121.800 C 215.928 122.460,216.382 123.345,216.459 123.767 C 216.537 124.189,216.832 124.611,217.115 124.705 C 217.433 124.811,217.297 124.289,216.759 123.338 C 214.902 120.058,212.964 116.656,212.155 115.260 C 211.690 114.457,210.721 112.720,210.002 111.400 C 209.283 110.080,208.584 108.910,208.448 108.800 C 208.311 108.690,207.866 107.970,207.459 107.200 C 207.051 106.430,206.164 104.810,205.487 103.600 C 204.810 102.390,204.059 101.040,203.817 100.600 C 202.103 97.483,201.684 97.369,200.486 99.700 M217.600 125.355 C 217.600 125.843,220.098 130.192,220.460 130.333 C 220.647 130.407,220.800 130.801,220.800 131.210 C 220.800 131.618,220.964 132.054,221.165 132.178 C 221.366 132.302,222.306 133.798,223.254 135.502 C 224.203 137.206,225.164 138.900,225.390 139.266 C 225.615 139.632,226.246 140.802,226.792 141.866 C 227.338 142.930,228.193 144.357,228.692 145.038 C 229.191 145.719,229.600 146.471,229.600 146.709 C 229.600 146.948,229.825 147.381,230.100 147.671 C 230.375 147.962,231.012 149.010,231.515 150.000 C 232.018 150.990,232.598 152.070,232.804 152.400 C 234.124 154.521,236.400 158.445,236.400 158.600 C 236.400 158.702,237.119 159.961,237.998 161.397 C 238.877 162.832,240.109 164.951,240.736 166.104 C 243.070 170.392,243.411 170.976,243.900 171.510 C 244.175 171.811,244.400 172.221,244.400 172.422 C 244.400 172.622,245.087 173.914,245.926 175.293 C 246.765 176.672,247.581 178.070,247.738 178.400 C 247.896 178.730,248.553 179.900,249.198 181.000 C 249.844 182.100,250.561 183.360,250.792 183.800 C 251.023 184.240,251.559 185.140,251.984 185.800 C 252.409 186.460,253.168 187.810,253.670 188.800 C 254.173 189.790,254.975 191.140,255.451 191.800 C 255.928 192.460,256.382 193.345,256.459 193.767 C 256.537 194.189,256.832 194.611,257.115 194.705 C 257.433 194.811,257.297 194.289,256.759 193.338 C 254.902 190.058,252.964 186.656,252.155 185.260 C 251.690 184.457,250.721 182.720,250.002 181.400 C 249.283 180.080,248.580 178.910,248.439 178.800 C 248.299 178.690,247.968 178.150,247.705 177.600 C 247.442 177.050,246.495 175.340,245.602 173.800 C 244.709 172.260,243.800 170.640,243.583 170.200 C 243.366 169.760,242.844 168.860,242.423 168.200 C 242.002 167.540,241.312 166.370,240.890 165.600 C 239.253 162.615,238.065 160.518,236.857 158.482 C 236.166 157.318,235.600 156.193,235.600 155.982 C 235.600 155.772,235.432 155.600,235.227 155.600 C 235.022 155.600,234.726 155.197,234.570 154.705 C 234.414 154.213,233.891 153.178,233.407 152.405 C 232.029 150.200,227.772 142.693,225.966 139.282 C 225.582 138.557,225.092 137.747,224.876 137.482 C 224.661 137.217,223.950 136.010,223.297 134.800 C 220.150 128.975,217.600 124.747,217.600 125.355 M176.773 141.304 C 176.240 142.237,175.586 143.360,175.319 143.800 C 175.053 144.240,174.652 144.960,174.428 145.400 C 174.205 145.840,173.481 147.100,172.818 148.200 C 172.156 149.300,171.445 150.579,171.238 151.043 C 171.032 151.506,170.219 152.893,169.432 154.123 C 168.644 155.354,168.000 156.482,168.000 156.630 C 168.000 156.778,167.190 158.233,166.200 159.864 C 165.210 161.494,164.400 162.916,164.400 163.022 C 164.400 163.129,163.950 163.929,163.400 164.800 C 162.339 166.481,162.163 166.994,162.776 166.615 C 162.984 166.487,163.569 165.531,164.076 164.491 C 164.584 163.451,165.225 162.362,165.500 162.071 C 165.775 161.781,166.000 161.286,166.000 160.971 C 166.000 160.657,166.159 160.400,166.353 160.400 C 166.548 160.400,166.811 160.085,166.938 159.700 C 167.065 159.315,167.806 157.920,168.584 156.600 C 169.362 155.280,170.122 153.930,170.273 153.600 C 170.424 153.270,171.193 151.920,171.982 150.600 C 172.771 149.280,173.772 147.480,174.208 146.600 C 174.644 145.720,175.111 144.910,175.246 144.800 C 175.721 144.414,178.095 139.962,177.920 139.786 C 177.822 139.689,177.306 140.372,176.773 141.304 M161.495 168.065 C 161.183 168.579,160.168 170.350,159.241 172.000 C 158.314 173.650,157.390 175.270,157.188 175.600 C 156.985 175.930,155.972 177.730,154.937 179.600 C 153.901 181.470,152.665 183.630,152.191 184.400 C 151.716 185.170,150.876 186.610,150.324 187.600 C 149.773 188.590,148.214 191.320,146.861 193.667 C 145.507 196.014,144.400 198.107,144.400 198.318 C 144.400 198.529,144.146 198.913,143.834 199.171 C 143.523 199.430,142.897 200.397,142.443 201.320 C 141.989 202.244,141.084 203.900,140.432 205.000 C 138.485 208.286,138.043 209.200,138.404 209.200 C 138.592 209.200,138.872 208.795,139.027 208.300 C 139.181 207.805,139.431 207.310,139.583 207.200 C 139.734 207.090,140.654 205.560,141.627 203.800 C 142.600 202.040,143.615 200.240,143.883 199.800 C 144.150 199.360,144.499 198.730,144.658 198.400 C 144.818 198.070,145.601 196.720,146.400 195.400 C 147.199 194.080,147.977 192.730,148.130 192.400 C 148.284 192.070,148.763 191.260,149.196 190.600 C 149.629 189.940,150.381 188.545,150.867 187.500 C 151.352 186.455,151.896 185.600,152.075 185.600 C 152.254 185.600,152.400 185.343,152.400 185.029 C 152.400 184.714,152.634 184.219,152.921 183.929 C 153.207 183.638,153.849 182.590,154.348 181.600 C 154.846 180.610,155.787 178.900,156.438 177.800 C 157.090 176.700,157.797 175.440,158.010 175.000 C 158.224 174.560,158.573 173.930,158.788 173.600 C 160.413 171.096,162.411 167.478,162.255 167.321 C 162.150 167.216,161.808 167.551,161.495 168.065 M257.600 195.355 C 257.600 195.843,260.098 200.192,260.460 200.333 C 260.647 200.407,260.800 200.801,260.800 201.210 C 260.800 201.618,260.964 202.054,261.165 202.178 C 261.366 202.302,262.306 203.798,263.254 205.502 C 264.203 207.206,265.164 208.900,265.390 209.266 C 265.615 209.632,266.246 210.802,266.792 211.866 C 267.338 212.930,268.193 214.357,268.692 215.038 C 269.191 215.719,269.600 216.471,269.600 216.709 C 269.600 216.948,269.825 217.381,270.100 217.671 C 270.375 217.962,271.012 219.010,271.515 220.000 C 272.018 220.990,272.598 222.070,272.804 222.400 C 274.124 224.521,276.400 228.445,276.400 228.600 C 276.400 228.702,277.119 229.961,277.998 231.397 C 278.877 232.832,280.109 234.951,280.736 236.104 C 283.070 240.392,283.411 240.976,283.900 241.510 C 284.175 241.811,284.400 242.221,284.400 242.422 C 284.400 242.622,285.087 243.914,285.926 245.293 C 286.765 246.672,287.581 248.070,287.738 248.400 C 287.896 248.730,288.553 249.900,289.198 251.000 C 289.844 252.100,290.561 253.360,290.792 253.800 C 291.023 254.240,291.559 255.140,291.984 255.800 C 292.409 256.460,293.168 257.810,293.670 258.800 C 294.173 259.790,294.975 261.140,295.451 261.800 C 295.928 262.460,296.382 263.345,296.459 263.767 C 296.537 264.189,296.832 264.611,297.115 264.705 C 297.433 264.811,297.297 264.289,296.759 263.338 C 294.902 260.058,292.964 256.656,292.155 255.260 C 291.690 254.457,290.721 252.720,290.002 251.400 C 289.283 250.080,288.580 248.910,288.439 248.800 C 288.299 248.690,287.968 248.150,287.705 247.600 C 287.442 247.050,286.495 245.340,285.602 243.800 C 284.709 242.260,283.800 240.640,283.583 240.200 C 283.366 239.760,282.844 238.860,282.423 238.200 C 282.002 237.540,281.312 236.370,280.890 235.600 C 279.253 232.615,278.065 230.518,276.857 228.482 C 276.166 227.318,275.600 226.193,275.600 225.982 C 275.600 225.772,275.432 225.600,275.227 225.600 C 275.022 225.600,274.726 225.197,274.570 224.705 C 274.414 224.213,273.891 223.178,273.407 222.405 C 272.029 220.200,267.772 212.693,265.966 209.282 C 265.582 208.557,265.092 207.747,264.876 207.482 C 264.661 207.217,263.950 206.010,263.297 204.800 C 260.150 198.975,257.600 194.747,257.600 195.355 M136.773 211.304 C 136.240 212.237,135.586 213.360,135.319 213.800 C 135.053 214.240,134.652 214.960,134.428 215.400 C 134.205 215.840,133.481 217.100,132.818 218.200 C 132.156 219.300,131.445 220.579,131.238 221.043 C 131.032 221.506,130.219 222.893,129.432 224.123 C 128.644 225.354,128.000 226.482,128.000 226.630 C 128.000 226.778,127.190 228.233,126.200 229.864 C 125.210 231.494,124.400 232.916,124.400 233.022 C 124.400 233.129,123.950 233.929,123.400 234.800 C 122.339 236.481,122.163 236.994,122.776 236.615 C 122.984 236.487,123.569 235.531,124.076 234.491 C 124.584 233.451,125.225 232.362,125.500 232.071 C 125.775 231.781,126.000 231.286,126.000 230.971 C 126.000 230.657,126.159 230.400,126.353 230.400 C 126.548 230.400,126.811 230.085,126.938 229.700 C 127.065 229.315,127.806 227.920,128.584 226.600 C 129.362 225.280,130.122 223.930,130.273 223.600 C 130.424 223.270,131.193 221.920,131.982 220.600 C 132.771 219.280,133.772 217.480,134.208 216.600 C 134.644 215.720,135.111 214.910,135.246 214.800 C 135.721 214.414,138.095 209.962,137.920 209.786 C 137.822 209.689,137.306 210.372,136.773 211.304 M121.495 238.065 C 121.183 238.579,120.168 240.350,119.241 242.000 C 118.314 243.650,117.390 245.270,117.188 245.600 C 116.985 245.930,115.972 247.730,114.937 249.600 C 113.901 251.470,112.665 253.630,112.191 254.400 C 111.716 255.170,110.876 256.610,110.324 257.600 C 109.773 258.590,108.214 261.320,106.861 263.667 C 105.507 266.014,104.400 268.056,104.400 268.204 C 104.400 268.352,104.042 268.928,103.605 269.484 C 103.168 270.039,102.909 270.653,103.029 270.847 C 103.263 271.225,300.509 271.357,300.887 270.980 C 301.008 270.859,300.367 269.519,299.463 268.003 C 298.559 266.487,297.756 265.311,297.678 265.388 C 297.472 265.595,300.042 270.148,300.560 270.494 C 300.802 270.656,256.585 270.791,202.300 270.794 C 98.477 270.800,102.199 270.861,104.200 269.200 C 104.530 268.926,104.800 268.547,104.800 268.358 C 104.800 268.169,105.487 266.886,106.326 265.507 C 107.165 264.128,107.977 262.730,108.130 262.400 C 108.284 262.070,108.763 261.260,109.196 260.600 C 109.629 259.940,110.381 258.545,110.867 257.500 C 111.352 256.455,111.896 255.600,112.075 255.600 C 112.254 255.600,112.400 255.343,112.400 255.029 C 112.400 254.714,112.634 254.219,112.921 253.929 C 113.207 253.638,113.849 252.590,114.348 251.600 C 114.846 250.610,115.787 248.900,116.438 247.800 C 117.090 246.700,117.797 245.440,118.010 245.000 C 118.224 244.560,118.573 243.930,118.788 243.600 C 120.413 241.096,122.411 237.478,122.255 237.321 C 122.150 237.216,121.808 237.551,121.495 238.065 " stroke="none" fill="#848484" fill-rule="evenodd"></path><path id="path3" d="" stroke="none" fill="#343434" fill-rule="evenodd"></path><path id="path4" d="M174.282 0.275 C 170.960 0.392,169.912 0.563,169.739 1.014 C 169.566 1.464,168.737 1.600,166.157 1.600 C 163.440 1.600,162.800 1.714,162.800 2.200 C 162.800 2.676,162.222 2.800,160.000 2.800 C 157.778 2.800,157.200 2.924,157.200 3.400 C 157.200 3.861,156.689 4.000,155.000 4.000 C 153.311 4.000,152.800 4.139,152.800 4.600 C 152.800 5.061,152.289 5.200,150.600 5.200 C 149.390 5.200,148.400 5.380,148.400 5.600 C 148.400 5.820,147.494 6.000,146.387 6.000 C 144.968 6.000,144.307 6.177,144.145 6.600 C 143.994 6.992,143.371 7.200,142.345 7.200 C 141.318 7.200,140.695 7.408,140.545 7.800 C 140.395 8.191,139.772 8.400,138.757 8.400 C 137.640 8.400,137.200 8.569,137.200 9.000 C 137.200 9.433,136.756 9.600,135.600 9.600 C 134.720 9.600,134.000 9.780,134.000 10.000 C 134.000 10.220,133.274 10.400,132.387 10.400 C 131.323 10.400,130.697 10.604,130.545 11.000 C 130.402 11.372,129.793 11.600,128.945 11.600 C 128.096 11.600,127.487 11.828,127.345 12.200 C 127.218 12.530,126.684 12.800,126.157 12.800 C 125.573 12.800,125.200 13.034,125.200 13.400 C 125.200 13.844,124.733 14.000,123.400 14.000 C 122.067 14.000,121.600 14.156,121.600 14.600 C 121.600 14.973,121.222 15.200,120.600 15.200 C 120.050 15.200,119.600 15.380,119.600 15.600 C 119.600 15.820,119.060 16.000,118.400 16.000 C 117.600 16.000,117.200 16.200,117.200 16.600 C 117.200 17.033,116.756 17.200,115.600 17.200 C 114.444 17.200,114.000 17.367,114.000 17.800 C 114.000 18.200,113.600 18.400,112.800 18.400 C 112.000 18.400,111.600 18.600,111.600 19.000 C 111.600 19.373,111.222 19.600,110.600 19.600 C 110.050 19.600,109.600 19.780,109.600 20.000 C 109.600 20.220,109.253 20.400,108.829 20.400 C 108.404 20.400,107.787 20.670,107.457 21.000 C 107.127 21.330,106.484 21.600,106.029 21.600 C 105.559 21.600,105.200 21.860,105.200 22.200 C 105.200 22.600,104.800 22.800,104.000 22.800 C 103.200 22.800,102.800 23.000,102.800 23.400 C 102.800 23.730,102.530 24.000,102.200 24.000 C 101.870 24.000,101.600 24.270,101.600 24.600 C 101.600 24.973,101.222 25.200,100.600 25.200 C 100.050 25.200,99.600 25.380,99.600 25.600 C 99.600 25.820,99.144 26.000,98.587 26.000 C 98.031 26.000,97.471 26.270,97.345 26.600 C 97.218 26.930,96.864 27.200,96.557 27.200 C 96.251 27.200,96.000 27.470,96.000 27.800 C 96.000 28.173,95.622 28.400,95.000 28.400 C 94.378 28.400,94.000 28.627,94.000 29.000 C 94.000 29.382,93.616 29.600,92.946 29.600 C 92.335 29.600,91.502 30.021,90.965 30.600 C 90.455 31.150,89.670 31.600,89.219 31.600 C 88.758 31.600,88.400 31.862,88.400 32.200 C 88.400 32.530,88.130 32.800,87.800 32.800 C 87.470 32.800,87.200 33.070,87.200 33.400 C 87.200 33.773,86.822 34.000,86.200 34.000 C 85.578 34.000,85.200 34.227,85.200 34.600 C 85.200 34.930,84.930 35.200,84.600 35.200 C 84.270 35.200,84.000 35.380,84.000 35.600 C 84.000 35.820,83.616 36.000,83.147 36.000 C 82.321 36.000,79.600 38.477,79.600 39.228 C 79.600 39.433,79.156 39.600,78.614 39.600 C 77.633 39.600,75.200 41.586,75.200 42.387 C 75.200 42.614,74.930 42.800,74.600 42.800 C 74.270 42.800,74.000 43.070,74.000 43.400 C 74.000 43.800,73.600 44.000,72.800 44.000 C 72.068 44.000,71.600 44.208,71.600 44.532 C 71.600 44.825,71.150 45.306,70.600 45.600 C 70.050 45.894,69.600 46.375,69.600 46.668 C 69.600 46.960,69.330 47.200,69.000 47.200 C 68.670 47.200,68.400 47.470,68.400 47.800 C 68.400 48.130,68.130 48.400,67.800 48.400 C 67.470 48.400,67.200 48.670,67.200 49.000 C 67.200 49.330,66.930 49.600,66.600 49.600 C 66.270 49.600,66.000 49.780,66.000 50.000 C 66.000 50.220,65.634 50.400,65.187 50.400 C 64.741 50.400,64.271 50.670,64.145 51.000 C 64.018 51.330,63.664 51.600,63.357 51.600 C 63.051 51.600,62.800 51.870,62.800 52.200 C 62.800 52.530,62.530 52.800,62.200 52.800 C 61.870 52.800,61.600 52.975,61.600 53.189 C 61.600 53.697,58.097 57.200,57.589 57.200 C 57.375 57.200,57.200 57.375,57.200 57.589 C 57.200 58.097,53.697 61.600,53.189 61.600 C 52.975 61.600,52.800 61.870,52.800 62.200 C 52.800 62.530,52.530 62.800,52.200 62.800 C 51.870 62.800,51.600 63.051,51.600 63.357 C 51.600 63.664,51.330 64.018,51.000 64.145 C 50.670 64.271,50.400 64.741,50.400 65.187 C 50.400 65.634,50.220 66.000,50.000 66.000 C 49.780 66.000,49.600 66.270,49.600 66.600 C 49.600 66.930,49.330 67.200,49.000 67.200 C 48.670 67.200,48.400 67.470,48.400 67.800 C 48.400 68.130,48.130 68.400,47.800 68.400 C 47.470 68.400,47.200 68.670,47.200 69.000 C 47.200 69.330,46.960 69.600,46.668 69.600 C 46.375 69.600,45.894 70.050,45.600 70.600 C 45.306 71.150,44.825 71.600,44.532 71.600 C 44.208 71.600,44.000 72.068,44.000 72.800 C 44.000 73.600,43.800 74.000,43.400 74.000 C 43.070 74.000,42.800 74.270,42.800 74.600 C 42.800 74.930,42.614 75.200,42.387 75.200 C 41.586 75.200,39.600 77.633,39.600 78.614 C 39.600 79.156,39.420 79.600,39.200 79.600 C 38.506 79.600,37.200 81.167,37.200 82.000 C 37.200 82.444,36.933 82.800,36.600 82.800 C 36.270 82.800,36.000 83.070,36.000 83.400 C 36.000 83.730,35.820 84.000,35.600 84.000 C 35.380 84.000,35.200 84.270,35.200 84.600 C 35.200 84.930,34.930 85.200,34.600 85.200 C 34.227 85.200,34.000 85.578,34.000 86.200 C 34.000 86.822,33.773 87.200,33.400 87.200 C 33.070 87.200,32.800 87.470,32.800 87.800 C 32.800 88.130,32.530 88.400,32.200 88.400 C 31.862 88.400,31.600 88.758,31.600 89.219 C 31.600 89.670,31.150 90.455,30.600 90.965 C 30.021 91.502,29.600 92.335,29.600 92.946 C 29.600 93.616,29.382 94.000,29.000 94.000 C 28.627 94.000,28.400 94.378,28.400 95.000 C 28.400 95.622,28.173 96.000,27.800 96.000 C 27.470 96.000,27.200 96.251,27.200 96.557 C 27.200 96.864,26.930 97.218,26.600 97.345 C 26.270 97.471,26.000 98.031,26.000 98.587 C 26.000 99.144,25.820 99.600,25.600 99.600 C 25.380 99.600,25.200 100.050,25.200 100.600 C 25.200 101.222,24.973 101.600,24.600 101.600 C 24.200 101.600,24.000 102.000,24.000 102.800 C 24.000 103.600,23.800 104.000,23.400 104.000 C 23.070 104.000,22.800 104.270,22.800 104.600 C 22.800 104.930,22.530 105.200,22.200 105.200 C 21.860 105.200,21.600 105.559,21.600 106.029 C 21.600 106.484,21.330 107.127,21.000 107.457 C 20.670 107.787,20.400 108.404,20.400 108.829 C 20.400 109.253,20.220 109.600,20.000 109.600 C 19.780 109.600,19.600 110.050,19.600 110.600 C 19.600 111.222,19.373 111.600,19.000 111.600 C 18.600 111.600,18.400 112.000,18.400 112.800 C 18.400 113.600,18.200 114.000,17.800 114.000 C 17.367 114.000,17.200 114.444,17.200 115.600 C 17.200 116.756,17.033 117.200,16.600 117.200 C 16.200 117.200,16.000 117.600,16.000 118.400 C 16.000 119.060,15.820 119.600,15.600 119.600 C 15.380 119.600,15.200 120.050,15.200 120.600 C 15.200 121.222,14.973 121.600,14.600 121.600 C 14.156 121.600,14.000 122.067,14.000 123.400 C 14.000 124.733,13.844 125.200,13.400 125.200 C 13.034 125.200,12.800 125.573,12.800 126.157 C 12.800 126.684,12.530 127.218,12.200 127.345 C 11.828 127.487,11.600 128.096,11.600 128.945 C 11.600 129.793,11.372 130.402,11.000 130.545 C 10.604 130.697,10.400 131.323,10.400 132.387 C 10.400 133.274,10.220 134.000,10.000 134.000 C 9.780 134.000,9.600 134.720,9.600 135.600 C 9.600 136.756,9.433 137.200,9.000 137.200 C 8.569 137.200,8.400 137.640,8.400 138.757 C 8.400 139.772,8.191 140.395,7.800 140.545 C 7.408 140.695,7.200 141.318,7.200 142.345 C 7.200 143.371,6.992 143.994,6.600 144.145 C 6.177 144.307,6.000 144.968,6.000 146.387 C 6.000 147.494,5.820 148.400,5.600 148.400 C 5.380 148.400,5.200 149.390,5.200 150.600 C 5.200 152.289,5.061 152.800,4.600 152.800 C 4.139 152.800,4.000 153.311,4.000 155.000 C 4.000 156.689,3.861 157.200,3.400 157.200 C 2.924 157.200,2.800 157.778,2.800 160.000 C 2.800 162.222,2.676 162.800,2.200 162.800 C 1.716 162.800,1.600 163.428,1.600 166.056 C 1.600 168.695,1.467 169.409,0.900 169.824 C -0.184 170.616,-0.184 229.384,0.900 230.176 C 1.467 230.591,1.600 231.305,1.600 233.944 C 1.600 236.572,1.716 237.200,2.200 237.200 C 2.676 237.200,2.800 237.778,2.800 240.000 C 2.800 242.222,2.924 242.800,3.400 242.800 C 3.861 242.800,4.000 243.311,4.000 245.000 C 4.000 246.689,4.139 247.200,4.600 247.200 C 5.061 247.200,5.200 247.711,5.200 249.400 C 5.200 250.610,5.380 251.600,5.600 251.600 C 5.820 251.600,6.000 252.506,6.000 253.613 C 6.000 255.032,6.177 255.693,6.600 255.855 C 6.992 256.006,7.200 256.629,7.200 257.655 C 7.200 258.682,7.408 259.305,7.800 259.455 C 8.191 259.605,8.400 260.228,8.400 261.243 C 8.400 262.360,8.569 262.800,9.000 262.800 C 9.433 262.800,9.600 263.244,9.600 264.400 C 9.600 265.280,9.780 266.000,10.000 266.000 C 10.220 266.000,10.400 266.726,10.400 267.613 C 10.400 268.677,10.604 269.303,11.000 269.455 C 11.372 269.598,11.600 270.207,11.600 271.055 C 11.600 271.904,11.828 272.513,12.200 272.655 C 12.530 272.782,12.800 273.316,12.800 273.843 C 12.800 274.427,13.034 274.800,13.400 274.800 C 13.844 274.800,14.000 275.267,14.000 276.600 C 14.000 277.933,14.156 278.400,14.600 278.400 C 14.973 278.400,15.200 278.778,15.200 279.400 C 15.200 279.950,15.380 280.400,15.600 280.400 C 15.820 280.400,16.000 280.940,16.000 281.600 C 16.000 282.400,16.200 282.800,16.600 282.800 C 17.033 282.800,17.200 283.244,17.200 284.400 C 17.200 285.556,17.367 286.000,17.800 286.000 C 18.200 286.000,18.400 286.400,18.400 287.200 C 18.400 288.000,18.600 288.400,19.000 288.400 C 19.373 288.400,19.600 288.778,19.600 289.400 C 19.600 289.950,19.780 290.400,20.000 290.400 C 20.220 290.400,20.400 290.747,20.400 291.171 C 20.400 291.596,20.670 292.213,21.000 292.543 C 21.330 292.873,21.600 293.516,21.600 293.971 C 21.600 294.441,21.860 294.800,22.200 294.800 C 22.600 294.800,22.800 295.200,22.800 296.000 C 22.800 296.800,23.000 297.200,23.400 297.200 C 23.730 297.200,24.000 297.470,24.000 297.800 C 24.000 298.130,24.270 298.400,24.600 298.400 C 24.973 298.400,25.200 298.778,25.200 299.400 C 25.200 299.950,25.380 300.400,25.600 300.400 C 25.820 300.400,26.000 300.856,26.000 301.413 C 26.000 301.969,26.270 302.529,26.600 302.655 C 26.930 302.782,27.200 303.136,27.200 303.443 C 27.200 303.749,27.470 304.000,27.800 304.000 C 28.173 304.000,28.400 304.378,28.400 305.000 C 28.400 305.622,28.627 306.000,29.000 306.000 C 29.382 306.000,29.600 306.384,29.600 307.054 C 29.600 307.665,30.021 308.498,30.600 309.035 C 31.150 309.545,31.600 310.330,31.600 310.781 C 31.600 311.242,31.862 311.600,32.200 311.600 C 32.530 311.600,32.800 311.870,32.800 312.200 C 32.800 312.530,33.070 312.800,33.400 312.800 C 33.773 312.800,34.000 313.178,34.000 313.800 C 34.000 314.422,34.227 314.800,34.600 314.800 C 34.930 314.800,35.200 315.070,35.200 315.400 C 35.200 315.730,35.380 316.000,35.600 316.000 C 35.820 316.000,36.000 316.384,36.000 316.853 C 36.000 317.679,38.477 320.400,39.228 320.400 C 39.433 320.400,39.600 320.844,39.600 321.386 C 39.600 322.367,41.586 324.800,42.387 324.800 C 42.614 324.800,42.800 325.070,42.800 325.400 C 42.800 325.730,43.070 326.000,43.400 326.000 C 43.800 326.000,44.000 326.400,44.000 327.200 C 44.000 327.932,44.208 328.400,44.532 328.400 C 44.825 328.400,45.306 328.850,45.600 329.400 C 45.894 329.950,46.375 330.400,46.668 330.400 C 46.960 330.400,47.200 330.670,47.200 331.000 C 47.200 331.330,47.470 331.600,47.800 331.600 C 48.130 331.600,48.400 331.870,48.400 332.200 C 48.400 332.530,48.670 332.800,49.000 332.800 C 49.330 332.800,49.600 333.070,49.600 333.400 C 49.600 333.730,49.780 334.000,50.000 334.000 C 50.220 334.000,50.400 334.366,50.400 334.813 C 50.400 335.259,50.670 335.729,51.000 335.855 C 51.330 335.982,51.600 336.336,51.600 336.643 C 51.600 336.949,51.870 337.200,52.200 337.200 C 52.530 337.200,52.800 337.470,52.800 337.800 C 52.800 338.130,52.975 338.400,53.189 338.400 C 53.404 338.400,54.394 339.215,55.389 340.211 C 56.385 341.206,57.200 342.196,57.200 342.411 C 57.200 342.625,57.375 342.800,57.589 342.800 C 58.097 342.800,61.600 346.303,61.600 346.811 C 61.600 347.025,61.870 347.200,62.200 347.200 C 62.530 347.200,62.800 347.470,62.800 347.800 C 62.800 348.130,63.051 348.400,63.357 348.400 C 63.664 348.400,64.018 348.670,64.145 349.000 C 64.271 349.330,64.741 349.600,65.187 349.600 C 65.634 349.600,66.000 349.780,66.000 350.000 C 66.000 350.220,66.270 350.400,66.600 350.400 C 66.930 350.400,67.200 350.670,67.200 351.000 C 67.200 351.330,67.470 351.600,67.800 351.600 C 68.130 351.600,68.400 351.870,68.400 352.200 C 68.400 352.530,68.670 352.800,69.000 352.800 C 69.330 352.800,69.600 353.040,69.600 353.332 C 69.600 353.625,70.050 354.106,70.600 354.400 C 71.150 354.694,71.600 355.175,71.600 355.468 C 71.600 355.792,72.068 356.000,72.800 356.000 C 73.600 356.000,74.000 356.200,74.000 356.600 C 74.000 356.930,74.270 357.200,74.600 357.200 C 74.930 357.200,75.200 357.386,75.200 357.613 C 75.200 358.414,77.633 360.400,78.614 360.400 C 79.156 360.400,79.600 360.580,79.600 360.800 C 79.600 361.494,81.167 362.800,82.000 362.800 C 82.444 362.800,82.800 363.067,82.800 363.400 C 82.800 363.730,83.070 364.000,83.400 364.000 C 83.730 364.000,84.000 364.180,84.000 364.400 C 84.000 364.620,84.270 364.800,84.600 364.800 C 84.930 364.800,85.200 365.070,85.200 365.400 C 85.200 365.773,85.578 366.000,86.200 366.000 C 86.822 366.000,87.200 366.227,87.200 366.600 C 87.200 366.930,87.470 367.200,87.800 367.200 C 88.130 367.200,88.400 367.470,88.400 367.800 C 88.400 368.138,88.758 368.400,89.219 368.400 C 89.670 368.400,90.455 368.850,90.965 369.400 C 91.502 369.979,92.335 370.400,92.946 370.400 C 93.616 370.400,94.000 370.618,94.000 371.000 C 94.000 371.373,94.378 371.600,95.000 371.600 C 95.622 371.600,96.000 371.827,96.000 372.200 C 96.000 372.530,96.251 372.800,96.557 372.800 C 96.864 372.800,97.218 373.070,97.345 373.400 C 97.471 373.730,98.031 374.000,98.587 374.000 C 99.144 374.000,99.600 374.180,99.600 374.400 C 99.600 374.620,100.050 374.800,100.600 374.800 C 101.222 374.800,101.600 375.027,101.600 375.400 C 101.600 375.800,102.000 376.000,102.800 376.000 C 103.600 376.000,104.000 376.200,104.000 376.600 C 104.000 376.930,104.270 377.200,104.600 377.200 C 104.930 377.200,105.200 377.470,105.200 377.800 C 105.200 378.140,105.559 378.400,106.029 378.400 C 106.484 378.400,107.127 378.670,107.457 379.000 C 107.787 379.330,108.404 379.600,108.829 379.600 C 109.253 379.600,109.600 379.780,109.600 380.000 C 109.600 380.220,110.050 380.400,110.600 380.400 C 111.222 380.400,111.600 380.627,111.600 381.000 C 111.600 381.400,112.000 381.600,112.800 381.600 C 113.600 381.600,114.000 381.800,114.000 382.200 C 114.000 382.633,114.444 382.800,115.600 382.800 C 116.756 382.800,117.200 382.967,117.200 383.400 C 117.200 383.800,117.600 384.000,118.400 384.000 C 119.060 384.000,119.600 384.180,119.600 384.400 C 119.600 384.620,120.050 384.800,120.600 384.800 C 121.222 384.800,121.600 385.027,121.600 385.400 C 121.600 385.844,122.067 386.000,123.400 386.000 C 124.733 386.000,125.200 386.156,125.200 386.600 C 125.200 386.966,125.573 387.200,126.157 387.200 C 126.684 387.200,127.218 387.470,127.345 387.800 C 127.487 388.172,128.096 388.400,128.945 388.400 C 129.793 388.400,130.402 388.628,130.545 389.000 C 130.697 389.396,131.323 389.600,132.387 389.600 C 133.274 389.600,134.000 389.780,134.000 390.000 C 134.000 390.220,134.720 390.400,135.600 390.400 C 136.756 390.400,137.200 390.567,137.200 391.000 C 137.200 391.431,137.640 391.600,138.757 391.600 C 139.772 391.600,140.395 391.809,140.545 392.200 C 140.695 392.592,141.318 392.800,142.345 392.800 C 143.371 392.800,143.994 393.008,144.145 393.400 C 144.307 393.823,144.968 394.000,146.387 394.000 C 147.494 394.000,148.400 394.180,148.400 394.400 C 148.400 394.620,149.390 394.800,150.600 394.800 C 152.289 394.800,152.800 394.939,152.800 395.400 C 152.800 395.861,153.311 396.000,155.000 396.000 C 156.689 396.000,157.200 396.139,157.200 396.600 C 157.200 397.076,157.778 397.200,160.000 397.200 C 162.222 397.200,162.800 397.324,162.800 397.800 C 162.800 398.284,163.428 398.400,166.056 398.400 C 168.695 398.400,169.409 398.533,169.824 399.100 C 170.616 400.184,229.384 400.184,230.176 399.100 C 230.591 398.533,231.305 398.400,233.944 398.400 C 236.572 398.400,237.200 398.284,237.200 397.800 C 237.200 397.324,237.778 397.200,240.000 397.200 C 242.222 397.200,242.800 397.076,242.800 396.600 C 242.800 396.139,243.311 396.000,245.000 396.000 C 246.689 396.000,247.200 395.861,247.200 395.400 C 247.200 394.939,247.711 394.800,249.400 394.800 C 250.610 394.800,251.600 394.620,251.600 394.400 C 251.600 394.180,252.506 394.000,253.613 394.000 C 255.032 394.000,255.693 393.823,255.855 393.400 C 256.006 393.008,256.629 392.800,257.655 392.800 C 258.682 392.800,259.305 392.592,259.455 392.200 C 259.605 391.809,260.228 391.600,261.243 391.600 C 262.360 391.600,262.800 391.431,262.800 391.000 C 262.800 390.567,263.244 390.400,264.400 390.400 C 265.280 390.400,266.000 390.220,266.000 390.000 C 266.000 389.780,266.726 389.600,267.613 389.600 C 268.677 389.600,269.303 389.396,269.455 389.000 C 269.598 388.628,270.207 388.400,271.055 388.400 C 271.904 388.400,272.513 388.172,272.655 387.800 C 272.782 387.470,273.316 387.200,273.843 387.200 C 274.427 387.200,274.800 386.966,274.800 386.600 C 274.800 386.156,275.267 386.000,276.600 386.000 C 277.933 386.000,278.400 385.844,278.400 385.400 C 278.400 385.027,278.778 384.800,279.400 384.800 C 279.950 384.800,280.400 384.620,280.400 384.400 C 280.400 384.180,280.940 384.000,281.600 384.000 C 282.400 384.000,282.800 383.800,282.800 383.400 C 282.800 382.967,283.244 382.800,284.400 382.800 C 285.556 382.800,286.000 382.633,286.000 382.200 C 286.000 381.800,286.400 381.600,287.200 381.600 C 288.000 381.600,288.400 381.400,288.400 381.000 C 288.400 380.627,288.778 380.400,289.400 380.400 C 289.950 380.400,290.400 380.220,290.400 380.000 C 290.400 379.780,290.747 379.600,291.171 379.600 C 291.596 379.600,292.213 379.330,292.543 379.000 C 292.873 378.670,293.516 378.400,293.971 378.400 C 294.441 378.400,294.800 378.140,294.800 377.800 C 294.800 377.400,295.200 377.200,296.000 377.200 C 296.800 377.200,297.200 377.000,297.200 376.600 C 297.200 376.270,297.470 376.000,297.800 376.000 C 298.130 376.000,298.400 375.730,298.400 375.400 C 298.400 375.027,298.778 374.800,299.400 374.800 C 299.950 374.800,300.400 374.620,300.400 374.400 C 300.400 374.180,300.856 374.000,301.413 374.000 C 301.969 374.000,302.529 373.730,302.655 373.400 C 302.782 373.070,303.136 372.800,303.443 372.800 C 303.749 372.800,304.000 372.530,304.000 372.200 C 304.000 371.827,304.378 371.600,305.000 371.600 C 305.622 371.600,306.000 371.373,306.000 371.000 C 306.000 370.618,306.384 370.400,307.054 370.400 C 307.665 370.400,308.498 369.979,309.035 369.400 C 309.545 368.850,310.330 368.400,310.781 368.400 C 311.242 368.400,311.600 368.138,311.600 367.800 C 311.600 367.470,311.870 367.200,312.200 367.200 C 312.530 367.200,312.800 366.930,312.800 366.600 C 312.800 366.227,313.178 366.000,313.800 366.000 C 314.422 366.000,314.800 365.773,314.800 365.400 C 314.800 365.070,315.070 364.800,315.400 364.800 C 315.730 364.800,316.000 364.620,316.000 364.400 C 316.000 364.180,316.384 364.000,316.853 364.000 C 317.679 364.000,320.400 361.523,320.400 360.772 C 320.400 360.567,320.844 360.400,321.386 360.400 C 322.367 360.400,324.800 358.414,324.800 357.613 C 324.800 357.386,325.070 357.200,325.400 357.200 C 325.730 357.200,326.000 356.930,326.000 356.600 C 326.000 356.200,326.400 356.000,327.200 356.000 C 327.932 356.000,328.400 355.792,328.400 355.468 C 328.400 355.175,328.850 354.694,329.400 354.400 C 329.950 354.106,330.400 353.625,330.400 353.332 C 330.400 353.040,330.670 352.800,331.000 352.800 C 331.330 352.800,331.600 352.530,331.600 352.200 C 331.600 351.870,331.870 351.600,332.200 351.600 C 332.530 351.600,332.800 351.330,332.800 351.000 C 332.800 350.670,333.070 350.400,333.400 350.400 C 333.730 350.400,334.000 350.220,334.000 350.000 C 334.000 349.780,334.366 349.600,334.813 349.600 C 335.259 349.600,335.729 349.330,335.855 349.000 C 335.982 348.670,336.336 348.400,336.643 348.400 C 336.949 348.400,337.200 348.130,337.200 347.800 C 337.200 347.470,337.470 347.200,337.800 347.200 C 338.130 347.200,338.400 347.025,338.400 346.811 C 338.400 346.596,339.215 345.606,340.211 344.611 C 341.206 343.615,342.196 342.800,342.411 342.800 C 342.625 342.800,342.800 342.625,342.800 342.411 C 342.800 342.196,343.615 341.206,344.611 340.211 C 345.606 339.215,346.596 338.400,346.811 338.400 C 347.025 338.400,347.200 338.130,347.200 337.800 C 347.200 337.470,347.470 337.200,347.800 337.200 C 348.130 337.200,348.400 336.949,348.400 336.643 C 348.400 336.336,348.670 335.982,349.000 335.855 C 349.330 335.729,349.600 335.259,349.600 334.813 C 349.600 334.366,349.780 334.000,350.000 334.000 C 350.220 334.000,350.400 333.730,350.400 333.400 C 350.400 333.070,350.670 332.800,351.000 332.800 C 351.330 332.800,351.600 332.530,351.600 332.200 C 351.600 331.870,351.870 331.600,352.200 331.600 C 352.530 331.600,352.800 331.330,352.800 331.000 C 352.800 330.670,353.040 330.400,353.332 330.400 C 353.625 330.400,354.106 329.950,354.400 329.400 C 354.694 328.850,355.175 328.400,355.468 328.400 C 355.792 328.400,356.000 327.932,356.000 327.200 C 356.000 326.400,356.200 326.000,356.600 326.000 C 356.930 326.000,357.200 325.730,357.200 325.400 C 357.200 325.070,357.386 324.800,357.613 324.800 C 358.414 324.800,360.400 322.367,360.400 321.386 C 360.400 320.844,360.580 320.400,360.800 320.400 C 361.494 320.400,362.800 318.833,362.800 318.000 C 362.800 317.556,363.067 317.200,363.400 317.200 C 363.730 317.200,364.000 316.930,364.000 316.600 C 364.000 316.270,364.180 316.000,364.400 316.000 C 364.620 316.000,364.800 315.730,364.800 315.400 C 364.800 315.070,365.070 314.800,365.400 314.800 C 365.773 314.800,366.000 314.422,366.000 313.800 C 366.000 313.178,366.227 312.800,366.600 312.800 C 366.930 312.800,367.200 312.530,367.200 312.200 C 367.200 311.870,367.470 311.600,367.800 311.600 C 368.138 311.600,368.400 311.242,368.400 310.781 C 368.400 310.330,368.850 309.545,369.400 309.035 C 369.979 308.498,370.400 307.665,370.400 307.054 C 370.400 306.384,370.618 306.000,371.000 306.000 C 371.373 306.000,371.600 305.622,371.600 305.000 C 371.600 304.378,371.827 304.000,372.200 304.000 C 372.530 304.000,372.800 303.749,372.800 303.443 C 372.800 303.136,373.070 302.782,373.400 302.655 C 373.730 302.529,374.000 301.969,374.000 301.413 C 374.000 300.856,374.180 300.400,374.400 300.400 C 374.620 300.400,374.800 299.950,374.800 299.400 C 374.800 298.778,375.027 298.400,375.400 298.400 C 375.800 298.400,376.000 298.000,376.000 297.200 C 376.000 296.400,376.200 296.000,376.600 296.000 C 376.930 296.000,377.200 295.730,377.200 295.400 C 377.200 295.070,377.470 294.800,377.800 294.800 C 378.140 294.800,378.400 294.441,378.400 293.971 C 378.400 293.516,378.670 292.873,379.000 292.543 C 379.330 292.213,379.600 291.596,379.600 291.171 C 379.600 290.747,379.780 290.400,380.000 290.400 C 380.220 290.400,380.400 289.950,380.400 289.400 C 380.400 288.778,380.627 288.400,381.000 288.400 C 381.400 288.400,381.600 288.000,381.600 287.200 C 381.600 286.400,381.800 286.000,382.200 286.000 C 382.633 286.000,382.800 285.556,382.800 284.400 C 382.800 283.244,382.967 282.800,383.400 282.800 C 383.800 282.800,384.000 282.400,384.000 281.600 C 384.000 280.940,384.180 280.400,384.400 280.400 C 384.620 280.400,384.800 279.950,384.800 279.400 C 384.800 278.778,385.027 278.400,385.400 278.400 C 385.844 278.400,386.000 277.933,386.000 276.600 C 386.000 275.267,386.156 274.800,386.600 274.800 C 386.966 274.800,387.200 274.427,387.200 273.843 C 387.200 273.316,387.470 272.782,387.800 272.655 C 388.172 272.513,388.400 271.904,388.400 271.055 C 388.400 270.207,388.628 269.598,389.000 269.455 C 389.396 269.303,389.600 268.677,389.600 267.613 C 389.600 266.726,389.780 266.000,390.000 266.000 C 390.220 266.000,390.400 265.280,390.400 264.400 C 390.400 263.244,390.567 262.800,391.000 262.800 C 391.431 262.800,391.600 262.360,391.600 261.243 C 391.600 260.228,391.809 259.605,392.200 259.455 C 392.592 259.305,392.800 258.682,392.800 257.655 C 392.800 256.629,393.008 256.006,393.400 255.855 C 393.823 255.693,394.000 255.032,394.000 253.613 C 394.000 252.506,394.180 251.600,394.400 251.600 C 394.620 251.600,394.800 250.610,394.800 249.400 C 394.800 247.711,394.939 247.200,395.400 247.200 C 395.861 247.200,396.000 246.689,396.000 245.000 C 396.000 243.311,396.139 242.800,396.600 242.800 C 397.076 242.800,397.200 242.222,397.200 240.000 C 397.200 237.778,397.324 237.200,397.800 237.200 C 398.284 237.200,398.400 236.572,398.400 233.944 C 398.400 231.305,398.533 230.591,399.100 230.176 C 399.756 229.697,399.800 227.790,399.800 200.000 C 399.800 172.210,399.756 170.303,399.100 169.824 C 398.533 169.409,398.400 168.695,398.400 166.056 C 398.400 163.428,398.284 162.800,397.800 162.800 C 397.324 162.800,397.200 162.222,397.200 160.000 C 397.200 157.778,397.076 157.200,396.600 157.200 C 396.139 157.200,396.000 156.689,396.000 155.000 C 396.000 153.311,395.861 152.800,395.400 152.800 C 394.939 152.800,394.800 152.289,394.800 150.600 C 394.800 149.390,394.620 148.400,394.400 148.400 C 394.180 148.400,394.000 147.494,394.000 146.387 C 394.000 144.968,393.823 144.307,393.400 144.145 C 393.008 143.994,392.800 143.371,392.800 142.345 C 392.800 141.318,392.592 140.695,392.200 140.545 C 391.809 140.395,391.600 139.772,391.600 138.757 C 391.600 137.640,391.431 137.200,391.000 137.200 C 390.567 137.200,390.400 136.756,390.400 135.600 C 390.400 134.720,390.220 134.000,390.000 134.000 C 389.780 134.000,389.600 133.274,389.600 132.387 C 389.600 131.323,389.396 130.697,389.000 130.545 C 388.628 130.402,388.400 129.793,388.400 128.945 C 388.400 128.096,388.172 127.487,387.800 127.345 C 387.470 127.218,387.200 126.684,387.200 126.157 C 387.200 125.573,386.966 125.200,386.600 125.200 C 386.156 125.200,386.000 124.733,386.000 123.400 C 386.000 122.067,385.844 121.600,385.400 121.600 C 385.027 121.600,384.800 121.222,384.800 120.600 C 384.800 120.050,384.620 119.600,384.400 119.600 C 384.180 119.600,384.000 119.060,384.000 118.400 C 384.000 117.600,383.800 117.200,383.400 117.200 C 382.967 117.200,382.800 116.756,382.800 115.600 C 382.800 114.444,382.633 114.000,382.200 114.000 C 381.800 114.000,381.600 113.600,381.600 112.800 C 381.600 112.000,381.400 111.600,381.000 111.600 C 380.627 111.600,380.400 111.222,380.400 110.600 C 380.400 110.050,380.220 109.600,380.000 109.600 C 379.780 109.600,379.600 109.253,379.600 108.829 C 379.600 108.404,379.330 107.787,379.000 107.457 C 378.670 107.127,378.400 106.484,378.400 106.029 C 378.400 105.559,378.140 105.200,377.800 105.200 C 377.400 105.200,377.200 104.800,377.200 104.000 C 377.200 103.200,377.000 102.800,376.600 102.800 C 376.270 102.800,376.000 102.530,376.000 102.200 C 376.000 101.870,375.730 101.600,375.400 101.600 C 375.027 101.600,374.800 101.222,374.800 100.600 C 374.800 100.050,374.620 99.600,374.400 99.600 C 374.180 99.600,374.000 99.144,374.000 98.587 C 374.000 98.031,373.730 97.471,373.400 97.345 C 373.070 97.218,372.800 96.864,372.800 96.557 C 372.800 96.251,372.530 96.000,372.200 96.000 C 371.827 96.000,371.600 95.622,371.600 95.000 C 371.600 94.378,371.373 94.000,371.000 94.000 C 370.618 94.000,370.400 93.616,370.400 92.946 C 370.400 92.335,369.979 91.502,369.400 90.965 C 368.850 90.455,368.400 89.670,368.400 89.219 C 368.400 88.758,368.138 88.400,367.800 88.400 C 367.470 88.400,367.200 88.130,367.200 87.800 C 367.200 87.470,366.930 87.200,366.600 87.200 C 366.227 87.200,366.000 86.822,366.000 86.200 C 366.000 85.578,365.773 85.200,365.400 85.200 C 365.070 85.200,364.800 84.930,364.800 84.600 C 364.800 84.270,364.620 84.000,364.400 84.000 C 364.180 84.000,364.000 83.616,364.000 83.147 C 364.000 82.321,361.523 79.600,360.772 79.600 C 360.567 79.600,360.400 79.156,360.400 78.614 C 360.400 77.633,358.414 75.200,357.613 75.200 C 357.386 75.200,357.200 74.930,357.200 74.600 C 357.200 74.270,356.930 74.000,356.600 74.000 C 356.200 74.000,356.000 73.600,356.000 72.800 C 356.000 72.068,355.792 71.600,355.468 71.600 C 355.175 71.600,354.694 71.150,354.400 70.600 C 354.106 70.050,353.625 69.600,353.332 69.600 C 353.040 69.600,352.800 69.330,352.800 69.000 C 352.800 68.670,352.530 68.400,352.200 68.400 C 351.870 68.400,351.600 68.130,351.600 67.800 C 351.600 67.470,351.330 67.200,351.000 67.200 C 350.670 67.200,350.400 66.930,350.400 66.600 C 350.400 66.270,350.220 66.000,350.000 66.000 C 349.780 66.000,349.600 65.634,349.600 65.187 C 349.600 64.741,349.330 64.271,349.000 64.145 C 348.670 64.018,348.400 63.664,348.400 63.357 C 348.400 63.051,348.130 62.800,347.800 62.800 C 347.470 62.800,347.200 62.530,347.200 62.200 C 347.200 61.870,347.025 61.600,346.811 61.600 C 346.303 61.600,342.800 58.097,342.800 57.589 C 342.800 57.375,342.625 57.200,342.411 57.200 C 341.903 57.200,338.400 53.697,338.400 53.189 C 338.400 52.975,338.130 52.800,337.800 52.800 C 337.470 52.800,337.200 52.530,337.200 52.200 C 337.200 51.870,336.949 51.600,336.643 51.600 C 336.336 51.600,335.982 51.330,335.855 51.000 C 335.729 50.670,335.259 50.400,334.813 50.400 C 334.366 50.400,334.000 50.220,334.000 50.000 C 334.000 49.780,333.730 49.600,333.400 49.600 C 333.070 49.600,332.800 49.330,332.800 49.000 C 332.800 48.670,332.530 48.400,332.200 48.400 C 331.870 48.400,331.600 48.130,331.600 47.800 C 331.600 47.470,331.330 47.200,331.000 47.200 C 330.670 47.200,330.400 46.960,330.400 46.668 C 330.400 46.375,329.950 45.894,329.400 45.600 C 328.850 45.306,328.400 44.825,328.400 44.532 C 328.400 44.208,327.932 44.000,327.200 44.000 C 326.400 44.000,326.000 43.800,326.000 43.400 C 326.000 43.070,325.730 42.800,325.400 42.800 C 325.070 42.800,324.800 42.614,324.800 42.387 C 324.800 41.586,322.367 39.600,321.386 39.600 C 320.844 39.600,320.400 39.420,320.400 39.200 C 320.400 38.506,318.833 37.200,318.000 37.200 C 317.556 37.200,317.200 36.933,317.200 36.600 C 317.200 36.270,316.930 36.000,316.600 36.000 C 316.270 36.000,316.000 35.820,316.000 35.600 C 316.000 35.380,315.730 35.200,315.400 35.200 C 315.070 35.200,314.800 34.930,314.800 34.600 C 314.800 34.227,314.422 34.000,313.800 34.000 C 313.178 34.000,312.800 33.773,312.800 33.400 C 312.800 33.070,312.530 32.800,312.200 32.800 C 311.870 32.800,311.600 32.530,311.600 32.200 C 311.600 31.862,311.242 31.600,310.781 31.600 C 310.330 31.600,309.545 31.150,309.035 30.600 C 308.498 30.021,307.665 29.600,307.054 29.600 C 306.384 29.600,306.000 29.382,306.000 29.000 C 306.000 28.627,305.622 28.400,305.000 28.400 C 304.378 28.400,304.000 28.173,304.000 27.800 C 304.000 27.470,303.749 27.200,303.443 27.200 C 303.136 27.200,302.782 26.930,302.655 26.600 C 302.529 26.270,301.969 26.000,301.413 26.000 C 300.856 26.000,300.400 25.820,300.400 25.600 C 300.400 25.380,299.950 25.200,299.400 25.200 C 298.778 25.200,298.400 24.973,298.400 24.600 C 298.400 24.200,298.000 24.000,297.200 24.000 C 296.400 24.000,296.000 23.800,296.000 23.400 C 296.000 23.070,295.730 22.800,295.400 22.800 C 295.070 22.800,294.800 22.530,294.800 22.200 C 294.800 21.860,294.441 21.600,293.971 21.600 C 293.516 21.600,292.873 21.330,292.543 21.000 C 292.213 20.670,291.596 20.400,291.171 20.400 C 290.747 20.400,290.400 20.220,290.400 20.000 C 290.400 19.780,289.950 19.600,289.400 19.600 C 288.778 19.600,288.400 19.373,288.400 19.000 C 288.400 18.600,288.000 18.400,287.200 18.400 C 286.400 18.400,286.000 18.200,286.000 17.800 C 286.000 17.367,285.556 17.200,284.400 17.200 C 283.244 17.200,282.800 17.033,282.800 16.600 C 282.800 16.200,282.400 16.000,281.600 16.000 C 280.940 16.000,280.400 15.820,280.400 15.600 C 280.400 15.380,279.950 15.200,279.400 15.200 C 278.778 15.200,278.400 14.973,278.400 14.600 C 278.400 14.156,277.933 14.000,276.600 14.000 C 275.267 14.000,274.800 13.844,274.800 13.400 C 274.800 13.034,274.427 12.800,273.843 12.800 C 273.316 12.800,272.782 12.530,272.655 12.200 C 272.513 11.828,271.904 11.600,271.055 11.600 C 270.207 11.600,269.598 11.372,269.455 11.000 C 269.303 10.604,268.677 10.400,267.613 10.400 C 266.726 10.400,266.000 10.220,266.000 10.000 C 266.000 9.780,265.280 9.600,264.400 9.600 C 263.244 9.600,262.800 9.433,262.800 9.000 C 262.800 8.569,262.360 8.400,261.243 8.400 C 260.228 8.400,259.605 8.191,259.455 7.800 C 259.305 7.408,258.682 7.200,257.655 7.200 C 256.629 7.200,256.006 6.992,255.855 6.600 C 255.693 6.177,255.032 6.000,253.613 6.000 C 252.506 6.000,251.600 5.820,251.600 5.600 C 251.600 5.380,250.610 5.200,249.400 5.200 C 247.711 5.200,247.200 5.061,247.200 4.600 C 247.200 4.139,246.689 4.000,245.000 4.000 C 243.311 4.000,242.800 3.861,242.800 3.400 C 242.800 2.924,242.222 2.800,240.000 2.800 C 237.778 2.800,237.200 2.676,237.200 2.200 C 237.200 1.716,236.572 1.600,233.944 1.600 C 231.326 1.600,230.590 1.465,230.185 0.912 C 229.690 0.235,188.660 -0.232,174.282 0.275 M202.899 98.300 C 203.242 98.685,203.919 99.766,204.403 100.702 C 204.887 101.638,205.444 102.504,205.641 102.626 C 205.839 102.747,206.000 103.197,206.000 103.624 C 206.000 104.051,206.139 104.400,206.309 104.400 C 206.479 104.400,206.965 105.075,207.389 105.900 C 207.814 106.725,208.665 108.174,209.280 109.120 C 209.896 110.066,210.400 111.079,210.400 111.371 C 210.400 111.663,210.670 112.126,211.000 112.400 C 211.330 112.674,211.600 113.146,211.600 113.449 C 211.600 113.752,211.735 114.002,211.900 114.004 C 212.065 114.006,212.555 114.816,212.990 115.804 C 213.424 116.792,213.907 117.600,214.063 117.600 C 214.219 117.600,214.471 117.995,214.624 118.477 C 214.777 118.959,215.600 120.492,216.451 121.884 C 217.303 123.275,218.000 124.569,218.000 124.758 C 218.000 124.947,218.270 125.326,218.600 125.600 C 218.930 125.874,219.200 126.436,219.200 126.849 C 219.200 127.262,219.362 127.600,219.559 127.600 C 219.757 127.600,220.498 128.725,221.207 130.100 C 221.915 131.475,222.743 132.884,223.047 133.231 C 223.351 133.579,223.600 134.142,223.600 134.483 C 223.600 134.823,223.870 135.326,224.200 135.600 C 224.530 135.874,224.800 136.346,224.800 136.649 C 224.800 136.952,224.938 137.200,225.106 137.200 C 225.274 137.200,225.838 138.100,226.361 139.200 C 226.883 140.300,227.465 141.200,227.655 141.200 C 227.845 141.200,228.000 141.549,228.000 141.976 C 228.000 142.403,228.191 142.871,228.425 143.015 C 228.658 143.160,229.018 143.665,229.224 144.139 C 229.430 144.612,229.773 145.270,229.988 145.600 C 231.305 147.629,233.600 151.668,233.600 151.958 C 233.600 152.147,233.870 152.526,234.200 152.800 C 234.530 153.074,234.800 153.636,234.800 154.049 C 234.800 154.462,234.946 154.800,235.125 154.800 C 235.303 154.800,236.153 156.150,237.013 157.800 C 237.874 159.450,238.717 160.800,238.889 160.800 C 239.060 160.800,239.200 161.138,239.200 161.551 C 239.200 161.964,239.470 162.526,239.800 162.800 C 240.130 163.074,240.400 163.546,240.400 163.849 C 240.400 164.152,240.568 164.400,240.773 164.400 C 240.978 164.400,241.271 164.795,241.424 165.277 C 241.577 165.759,242.400 167.292,243.251 168.684 C 244.103 170.075,244.800 171.369,244.800 171.558 C 244.800 171.747,245.070 172.126,245.400 172.400 C 245.730 172.674,246.000 173.236,246.000 173.649 C 246.000 174.062,246.139 174.400,246.309 174.400 C 246.479 174.400,246.965 175.075,247.389 175.900 C 247.814 176.725,248.665 178.174,249.280 179.120 C 249.896 180.066,250.400 181.079,250.400 181.371 C 250.400 181.663,250.670 182.126,251.000 182.400 C 251.330 182.674,251.600 183.146,251.600 183.449 C 251.600 183.752,251.735 184.002,251.900 184.004 C 252.065 184.006,252.555 184.816,252.990 185.804 C 253.424 186.792,253.907 187.600,254.063 187.600 C 254.219 187.600,254.471 187.995,254.624 188.477 C 254.777 188.959,255.600 190.492,256.451 191.884 C 257.303 193.275,258.000 194.569,258.000 194.758 C 258.000 194.947,258.270 195.326,258.600 195.600 C 258.930 195.874,259.200 196.436,259.200 196.849 C 259.200 197.262,259.362 197.600,259.559 197.600 C 259.757 197.600,260.498 198.725,261.207 200.100 C 261.915 201.475,262.743 202.884,263.047 203.231 C 263.351 203.579,263.600 204.142,263.600 204.483 C 263.600 204.823,263.870 205.326,264.200 205.600 C 264.530 205.874,264.800 206.346,264.800 206.649 C 264.800 206.952,264.938 207.200,265.106 207.200 C 265.274 207.200,265.838 208.100,266.361 209.200 C 266.883 210.300,267.465 211.200,267.655 211.200 C 267.845 211.200,268.000 211.549,268.000 211.976 C 268.000 212.403,268.191 212.871,268.425 213.015 C 268.658 213.160,269.018 213.665,269.224 214.139 C 269.430 214.612,269.773 215.270,269.988 215.600 C 271.305 217.629,273.600 221.668,273.600 221.958 C 273.600 222.147,273.870 222.526,274.200 222.800 C 274.530 223.074,274.800 223.636,274.800 224.049 C 274.800 224.462,274.946 224.800,275.125 224.800 C 275.303 224.800,276.153 226.150,277.013 227.800 C 277.874 229.450,278.717 230.800,278.889 230.800 C 279.060 230.800,279.200 231.138,279.200 231.551 C 279.200 231.964,279.470 232.526,279.800 232.800 C 280.130 233.074,280.400 233.546,280.400 233.849 C 280.400 234.152,280.568 234.400,280.773 234.400 C 280.978 234.400,281.271 234.795,281.424 235.277 C 281.577 235.759,282.400 237.292,283.251 238.684 C 284.103 240.075,284.800 241.369,284.800 241.558 C 284.800 241.747,285.070 242.126,285.400 242.400 C 285.730 242.674,286.000 243.236,286.000 243.649 C 286.000 244.062,286.139 244.400,286.309 244.400 C 286.479 244.400,286.965 245.075,287.389 245.900 C 287.814 246.725,288.665 248.174,289.280 249.120 C 289.896 250.066,290.400 251.079,290.400 251.371 C 290.400 251.663,290.670 252.126,291.000 252.400 C 291.330 252.674,291.600 253.146,291.600 253.449 C 291.600 253.752,291.735 254.002,291.900 254.004 C 292.065 254.006,292.555 254.816,292.990 255.804 C 293.424 256.792,293.907 257.600,294.063 257.600 C 294.219 257.600,294.471 257.995,294.624 258.477 C 294.777 258.959,295.600 260.492,296.451 261.884 C 297.303 263.275,298.000 264.569,298.000 264.758 C 298.000 264.947,298.270 265.326,298.600 265.600 C 298.930 265.874,299.200 266.436,299.200 266.849 C 299.200 267.262,299.362 267.600,299.560 267.600 C 300.067 267.600,301.510 270.496,301.304 271.100 C 301.168 271.498,280.940 271.600,201.954 271.600 C 93.126 271.600,101.352 271.795,103.163 269.252 C 103.623 268.606,104.000 267.892,104.000 267.667 C 104.000 267.441,104.225 267.019,104.500 266.729 C 104.775 266.438,105.412 265.390,105.915 264.400 C 106.997 262.272,107.706 261.076,108.049 260.800 C 108.186 260.690,108.694 259.790,109.178 258.800 C 110.510 256.076,111.298 254.622,111.562 254.400 C 111.837 254.169,112.490 253.030,113.700 250.671 C 114.171 249.752,114.656 248.910,114.778 248.800 C 114.997 248.602,115.380 247.922,117.708 243.600 C 118.359 242.390,119.592 240.344,120.446 239.054 C 121.301 237.764,122.000 236.552,122.000 236.360 C 122.000 236.169,122.540 235.134,123.200 234.062 C 123.860 232.989,124.400 231.989,124.400 231.839 C 124.400 231.579,124.792 231.051,125.900 229.815 C 126.175 229.508,126.400 229.079,126.400 228.861 C 126.400 228.233,127.749 225.832,128.300 225.480 C 128.575 225.304,128.800 224.835,128.800 224.439 C 128.800 224.042,129.226 223.257,129.748 222.694 C 130.269 222.132,130.812 221.206,130.955 220.636 C 131.098 220.066,131.392 219.600,131.608 219.600 C 131.823 219.600,132.000 219.251,132.000 218.824 C 132.000 218.397,132.161 217.947,132.359 217.826 C 132.556 217.704,133.115 216.838,133.602 215.902 C 134.089 214.966,134.603 214.110,134.744 214.000 C 134.885 213.890,135.415 212.990,135.921 212.000 C 137.454 209.003,138.899 206.608,139.260 206.467 C 139.447 206.393,139.600 205.999,139.600 205.590 C 139.600 205.182,139.791 204.729,140.025 204.585 C 140.258 204.440,140.620 203.935,140.828 203.461 C 141.036 202.988,141.744 201.700,142.400 200.600 C 143.056 199.500,143.786 198.154,144.022 197.608 C 144.257 197.063,144.574 196.523,144.725 196.408 C 144.877 196.294,145.412 195.390,145.915 194.400 C 146.997 192.273,147.706 191.076,148.049 190.800 C 148.186 190.690,148.694 189.790,149.178 188.800 C 150.510 186.076,151.298 184.622,151.562 184.400 C 151.837 184.169,152.490 183.030,153.700 180.671 C 154.171 179.752,154.656 178.910,154.778 178.800 C 154.997 178.602,155.380 177.922,157.708 173.600 C 158.359 172.390,159.592 170.344,160.446 169.054 C 161.301 167.764,162.000 166.552,162.000 166.360 C 162.000 166.169,162.540 165.134,163.200 164.062 C 163.860 162.989,164.400 161.984,164.400 161.827 C 164.400 161.671,164.625 161.292,164.900 160.985 C 166.073 159.677,166.400 159.212,166.400 158.849 C 166.400 158.231,167.754 155.829,168.300 155.480 C 168.575 155.304,168.800 154.835,168.800 154.439 C 168.800 154.042,169.226 153.257,169.748 152.694 C 170.269 152.132,170.812 151.206,170.955 150.636 C 171.098 150.066,171.392 149.600,171.608 149.600 C 171.823 149.600,172.000 149.251,172.000 148.824 C 172.000 148.397,172.161 147.947,172.359 147.826 C 172.556 147.704,173.115 146.838,173.602 145.902 C 174.089 144.966,174.603 144.110,174.744 144.000 C 174.885 143.890,175.415 142.990,175.921 142.000 C 177.454 139.003,178.899 136.608,179.260 136.467 C 179.447 136.393,179.600 135.999,179.600 135.590 C 179.600 135.182,179.791 134.729,180.025 134.585 C 180.258 134.440,180.620 133.935,180.828 133.461 C 181.036 132.988,181.744 131.700,182.400 130.600 C 183.056 129.500,183.786 128.154,184.022 127.608 C 184.257 127.063,184.574 126.523,184.725 126.408 C 184.877 126.294,185.412 125.390,185.915 124.400 C 186.997 122.273,187.706 121.076,188.049 120.800 C 188.186 120.690,188.694 119.790,189.178 118.800 C 190.510 116.076,191.298 114.622,191.562 114.400 C 191.837 114.169,192.490 113.030,193.700 110.671 C 194.171 109.752,194.656 108.910,194.778 108.800 C 194.990 108.608,195.290 108.079,197.499 104.000 C 200.871 97.775,201.675 96.925,202.899 98.300 " stroke="none" fill="#242424" fill-rule="evenodd"></path></g></svg>